<?xml version="1.0" encoding="UTF-8" standalone="no"?>
<svg
   width="81.206039"
   height="67.027794"
   id="svg2"
   sodipodi:version="0.32"
   inkscape:version="1.3.2 (091e20ef0f, 2023-11-25)"
   version="1.0"
   sodipodi:docname="dCache-logo.svg"
   inkscape:output_extension="org.inkscape.output.svg.inkscape"
   xmlns:inkscape="http://www.inkscape.org/namespaces/inkscape"
   xmlns:sodipodi="http://sodipodi.sourceforge.net/DTD/sodipodi-0.dtd"
   xmlns:xlink="http://www.w3.org/1999/xlink"
   xmlns="http://www.w3.org/2000/svg"
   xmlns:svg="http://www.w3.org/2000/svg"
   xmlns:rdf="http://www.w3.org/1999/02/22-rdf-syntax-ns#"
   xmlns:cc="http://creativecommons.org/ns#"
   xmlns:dc="http://purl.org/dc/elements/1.1/">
  <defs
     id="defs4">
    <linearGradient
       id="linearGradient3606">
      <stop
         style="stop-color:#7d86e7;stop-opacity:1;"
         offset="0"
         id="stop3616" />
      <stop
         style="stop-color:#0011b7;stop-opacity:1;"
         offset="1"
         id="stop3612" />
    </linearGradient>
    <inkscape:perspective
       sodipodi:type="inkscape:persp3d"
       inkscape:vp_x="0 : -201.02319 : 1"
       inkscape:vp_y="0 : 1000 : 0"
       inkscape:vp_z="405.92639 : -201.02319 : 1"
       inkscape:persp3d-origin="202.9632 : -256.66543 : 1"
       id="perspective8" />
    <radialGradient
       inkscape:collect="always"
       xlink:href="#linearGradient3606"
       id="radialGradient3614"
       cx="43.432018"
       cy="73.350136"
       fx="43.432018"
       fy="73.350136"
       r="203.01512"
       gradientTransform="matrix(1.1680792,1.5692193,-1.0285861,0.76564823,145.7361,-70.81653)"
       gradientUnits="userSpaceOnUse" />
    <radialGradient
       inkscape:collect="always"
       xlink:href="#linearGradient3606"
       id="radialGradient2894"
       gradientUnits="userSpaceOnUse"
       gradientTransform="matrix(1.1680792,1.5692193,-1.0285861,0.76564823,-547.57607,-537.62595)"
       cx="43.432018"
       cy="73.350136"
       fx="43.432018"
       fy="73.350136"
       r="203.01512" />
    <radialGradient
       inkscape:collect="always"
       xlink:href="#linearGradient3606"
       id="radialGradient2902"
       gradientUnits="userSpaceOnUse"
       gradientTransform="matrix(1.1680792,1.5692193,-1.0285861,0.76564823,-274.34558,-831.62451)"
       cx="43.432018"
       cy="73.350136"
       fx="43.432018"
       fy="73.350136"
       r="203.01512" />
  </defs>
  <sodipodi:namedview
     id="base"
     pagecolor="#ffffff"
     bordercolor="#666666"
     borderopacity="1.0"
     gridtolerance="10000"
     guidetolerance="10"
     objecttolerance="10"
     inkscape:pageopacity="0.0"
     inkscape:pageshadow="2"
     inkscape:zoom="0.35"
     inkscape:cx="-400"
     inkscape:cy="535.71429"
     inkscape:document-units="px"
     inkscape:current-layer="layer1"
     inkscape:window-width="1499"
     inkscape:window-height="991"
     inkscape:window-x="26"
     inkscape:window-y="23"
     showguides="true"
     inkscape:guide-bbox="true"
     showgrid="false"
     inkscape:window-maximized="0"
     inkscape:document-rotation="0"
     inkscape:showpageshadow="2"
     inkscape:pagecheckerboard="0"
     inkscape:deskcolor="#d1d1d1" />
  <metadata
     id="metadata7">
    <rdf:RDF>
      <cc:Work
         rdf:about="">
        <dc:format>image/svg+xml</dc:format>
        <dc:type
           rdf:resource="http://purl.org/dc/dcmitype/StillImage" />
      </cc:Work>
    </rdf:RDF>
  </metadata>
  <g
     style="display:inline"
     inkscape:label="Layer 1"
     inkscape:groupmode="layer"
     id="layer1"
     transform="translate(-34.725727,-35.072955)">
    <g
       id="g2917"
       transform="matrix(0.2,0,0,0.2,116.35201,182.57265)">
      <path
         style="fill:#4c4e50;fill-opacity:1"
         d="m -369.56122,-405.47354 c -3.67404,-10.79744 22.37984,-18.35492 38.83192,-18.71658 21.43796,-0.47127 40.80587,1.50907 67.72116,-0.50236 -5.24667,-16.51223 0.36221,-38.42402 5.16752,-51.74522 0.7214,-28.74104 -2.62208,-55.30636 -6.08197,-74.32141 -0.94861,-5.21343 7.18336,-4.2225 17.0241,3.95334 9.84073,8.17584 21.39022,23.53659 27.27665,34.94096 8.56194,13.23539 34.72512,59.09205 3.41763,59.08668 -7.1729,-0.001 -5.85883,-5.96558 -11.9548,-7.89417 -6.60104,1.53515 -18.896,17.47116 -16.78031,36.26882 8.88563,0.84643 18.00351,-0.78367 27.83072,-0.17418 11.44096,-13.15369 17.63688,-23.24863 20.15608,-38.32794 0.73077,-17.29925 -3.47166,-29.65011 -15.40343,-48.6409 -11.93177,-18.99079 -35.96641,-43.36522 -62.92647,-55.87745 -17.34408,-8.04942 -33.15852,-23.20417 -42.41273,-39.58394 -11.93659,-21.12751 6.2127,-54.44593 -5.1032,-64.96434 -17.40481,-1.71811 -49.22055,0.28926 -50.07935,0.45609 -32.8614,6.38397 -21.86464,15.81181 -30.62423,17.44462 -5.52338,1.02957 -6.47021,-11.11169 -0.84115,-17.41808 6.60381,-7.39842 21.70186,-14.07262 32.91674,-18.69676 6.93665,-2.86012 23.88093,-9.35106 31.35507,-12.28323 11.27291,-4.42245 11.49787,-8.8319 14.70371,-13.50035 2.00896,-2.92553 34.9593,-17.11132 46.50617,-18.76402 7.55641,-1.08154 43.47993,-9.87219 61.50811,10.9026 14.60649,16.83179 9.74745,37.3151 4.05729,55.17407 27.48517,-0.92295 65.14162,25.3959 88.24643,47.92928 41.577969,38.3861 69.191859,88.50519 96.485259,137.34013 6.4337,12.68245 19.1167998,23.19029 26.4630998,35.38912 -2.5007,2.51453 -9.7357998,1.61226 -14.1341998,-3.25976 -3.4067,-3.77347 -8.2721,-6.23893 -9.5856,-7.42155 -2.6142,-2.35392 -21.0365,-16.90269 -30.1383,-21.93688 -30.12514,-20.52338 -63.313329,-35.86034 -97.151719,-49.0762 -27.26355,-14.71653 -81.32959,-41.61159 -95.01378,-63.48179 -5.09108,-8.13663 -0.27118,-25.69884 -3.20895,-31.08151 -2.7592,12.2959 -5.32863,31.84635 2.14524,40.5126 15.61361,18.1046 78.70199,49.8646 107.19106,63.12357 28.78229,13.39544 76.672759,42.7373 99.817049,70.49431 2.7982,3.35595 11.2609,30.64514 -3.2484,32.70629 -17.24967,2.45045 -43.03203,3.17666 -59.401399,-18.10347 -9.28194,-12.0665 -21.86549,-34.89783 -32.22789,-39.08475 1.38716,10.59988 -5.35122,22.97642 -10.76906,22.86567 -6.4081,-0.12582 -13.02495,-11.04554 -21.01867,-15.00992 -11.48725,-5.69695 -9.53598,28.81107 -18.96961,42.12194 12.36241,-0.35398 33.84149,2.03484 47.06057,2.47818 13.81943,0.46347 33.51153,19.97888 8.13468,16.29472 -16.39745,-2.38055 -45.0732,-8.43877 -49.46962,-7.88543 -18.36973,0.26926 -50.16276,-0.35319 -59.06907,0.0971 6.2568,1.41509 6.41864,6.25394 2.52939,7.35328 -3.65483,1.03308 -14.93563,-4.18671 -19.34669,-7.42173 -3.77973,-0.14142 -56.46693,-1.07477 -71.33614,4.86066 -14.8692,5.93543 -38.22234,9.33566 -40.24891,3.3799 z"
         id="path2900"
         sodipodi:nodetypes="csccsscscccczsscssssssssccccssccscszssscsscsscczczs" />
    </g>
    <path
       id="path847"
       d="m 48.990439,100.90029 c 1.414286,-0.47071 5.541464,-1.000973 9.171504,-1.178361 5.568856,-0.272136 6.89878,-0.168062 8.511868,0.666101 1.700004,0.8791 1.8729,0.88727 1.560716,0.0737 -0.309456,-0.806425 0.43307,-0.914887 6.263372,-0.914887 3.656036,0 8.895962,0.41741 11.715484,0.933247 5.325236,0.97426 6.473146,0.80365 4.9359,-0.733591 -0.616556,-0.616554 -2.753616,-1.101782 -6.537416,-1.484342 -3.091784,-0.3126 -5.667984,-0.60512 -5.724886,-0.650058 -0.169942,-0.1342 1.997218,-7.716776 2.384712,-8.343752 0.555362,-0.898596 1.1072,-0.7127 3.478538,1.171802 2.051564,1.630378 2.252938,1.681682 2.935718,0.747926 0.403184,-0.551388 0.733062,-1.596234 0.733062,-2.321878 0,-2.377054 1.564828,-1.40919 4.959332,3.067406 1.82951,2.41272 4.01437,4.89148 4.855244,5.508364 1.639204,1.20255 6.337403,1.906036 8.725863,1.306572 1.27405,-0.319766 1.45956,-0.670052 1.45956,-2.755976 0,-2.157772 -0.31888,-2.699756 -3.28635,-5.585524 -4.65437,-4.52624 -9.155869,-7.425184 -21.260187,-13.691452 -11.195322,-5.795692 -16.873236,-9.26279 -17.695942,-10.805654 -0.566902,-1.063142 -0.769384,-2.835694 -0.677914,-5.93452 0.09693,-3.283714 1.206108,-2.546108 1.206108,0.802064 0,2.730034 0.17721,3.109418 2.428572,5.199284 3.349002,3.108772 11.753858,7.964374 21.07554,12.175636 8.72534,3.941852 15.016153,7.575178 20.340763,11.748022 1.95754,1.534104 3.82897,2.78928 4.15874,2.78928 0.32976,0 -0.629,-1.649524 -2.13059,-3.665608 -1.50159,-2.016084 -4.72976,-7.105792 -7.17371,-11.310462 -5.3574,-9.217098 -11.031561,-16.416964 -16.580473,-21.038728 -4.637534,-3.862666 -11.163354,-7.413772 -13.624188,-7.413772 -1.83766,0 -1.891714,-0.198674 -1.008424,-3.706534 0.793492,-3.151244 0.02355,-5.740633 -2.395528,-8.056355 -1.668968,-1.597666 -1.954272,-1.664648 -6.98679,-1.640338 -4.409694,0.0213 -5.85654,0.279461 -9.068798,1.618136 -2.102114,0.876036 -4.21396,2.190955 -4.692982,2.922044 -0.55936,0.85369 -2.782652,2.069971 -6.214354,3.399648 -6.916784,2.680033 -9.556348,4.454573 -9.556348,6.424583 v 1.491412 l 1.366496,-1.474474 c 1.617332,-1.745132 4.079046,-2.298023 10.510498,-2.360618 3.622628,-0.03526 4.86177,0.155168 5.27777,0.811066 0.306298,0.482936 0.388698,2.764162 0.18875,5.225274 -0.195194,2.402472 -0.181144,5.0604 0.0312,5.906508 0.59541,2.372302 5.29368,6.994638 9.448666,9.295954 4.903082,2.71566 11.367696,9.179628 13.429868,13.428524 2.128886,4.386352 1.942052,9.19887 -0.499182,12.858026 -1.57064,2.354228 -1.714126,2.428572 -4.687162,2.428572 h -3.066904 l 0.0021,-1.857144 c 0.0026,-2.201468 1.901876,-5.571428 3.140096,-5.571428 0.480314,0 1.384982,0.319552 2.010374,0.710118 1.477414,0.92266 3.068762,-0.0095 3.302454,-1.934418 0.268854,-2.214576 -4.260514,-10.599138 -7.573364,-14.019468 -3.77705,-3.899588 -4.37209,-3.906062 -3.854752,-0.04195 0.473982,3.54028 0.391854,12.060324 -0.176264,18.285716 l -0.404144,4.428572 -6.937544,0.014 c -3.815646,0.0077 -8.090886,0.279708 -9.50053,0.604508 -2.476538,0.570618 -4.57987,1.901837 -4.57987,2.898657 0,0.74612 3.430584,0.50084 6.285714,-0.44943 z"
       style="fill:#eaeaea;fill-opacity:1;stroke-width:0.2" />
  </g>
</svg>
